<?xml version="1.0"?>

<svg xmlns:dc="http://purl.org/dc/elements/1.1/" xmlns:cc="http://creativecommons.org/ns#" xmlns:rdf="http://www.w3.org/1999/02/22-rdf-syntax-ns#" xmlns:svg="http://www.w3.org/2000/svg" xmlns="http://www.w3.org/2000/svg" viewBox="0 0 592.90668 362.22668" height="362.22668" width="592.90668" xml:space="preserve" id="svg2" version="1.1"><metadata id="metadata8"><rdf:rdf><cc:work rdf:about=""><dc:format>image/svg+xml</dc:format><dc:type rdf:resource="http://purl.org/dc/dcmitype/StillImage"></dc:type></cc:work></rdf:rdf></metadata><defs id="defs6"></defs><g transform="matrix(1.3333333,0,0,-1.3333333,0,362.22667)" id="g10"><g transform="scale(0.1)" id="g12"><path id="path14" style="fill:#347ab6;fill-opacity:1;fill-rule:evenodd;stroke:none" d="M 1729.84,1332.19 V 758.781 c 0,-70.511 -22.94,-130.609 -68.8,-180.312 -45.86,-49.688 -101.32,-74.539 -166.4,-74.539 H 906.66 v 826.98 h 176.4 V 695.07 h 411.58 c 16.47,-0.851 30.38,5.102 41.75,17.84 11.37,12.738 17.05,27.61 17.05,44.59 v 574.69 h 176.4"></path><path id="path16" style="fill:#347ab6;fill-opacity:1;fill-rule:evenodd;stroke:none" d="M 2147.29,1141.06 H 1808.26 V 1332.2 H 2667.8 V 1141.06 H 2337.26 V 503.93 h -189.97 v 637.13"></path><path id="path18" style="fill:#347ab6;fill-opacity:1;fill-rule:evenodd;stroke:none" d="m 3497.12,503.93 h -506.57 c -69.23,0 -128.75,24.851 -178.57,74.761 -49.81,49.688 -74.71,109.368 -74.71,179.239 0,0 0,16.781 0,50.332 0,33.558 0,70.508 0,110.437 0,36.52 0,70.723 0,102.151 0,31.43 0,50.12 0,56.07 0,70.72 24.9,130.82 74.71,180.51 49.82,49.91 109.34,74.76 178.57,74.76 l 506.57,1.27 v -192.41 h -506.57 c -2.53,-0.85 -5.06,-1.48 -7.6,-1.91 -2.53,-0.42 -5.06,-1.06 -7.6,-1.91 -11.81,-3.4 -22.79,-10.83 -32.93,-22.3 -10.12,-11.47 -15.19,-24.42 -15.19,-38.87 V 758.781 c 0,-17.84 6.33,-33.133 18.99,-45.871 12.67,-12.738 27.44,-19.121 44.33,-19.121 h 506.57 V 503.93"></path><path id="path20" style="fill:#347ab6;fill-opacity:1;fill-rule:evenodd;stroke:none" d="M 4256.77,822.488 H 3813.52 V 503.93 h -189.97 v 828.26 h 189.97 v -318.56 h 443.25 v 318.56 h 189.96 V 503.93 h -189.96 v 318.558"></path><path id="path22" style="fill:#bc7c1c;fill-opacity:1;fill-rule:evenodd;stroke:none" d="m 2191.85,1723.94 h 96.76 V 1426.7 h -96.76 v 297.24"></path><path id="path24" style="fill:#ffffff;fill-opacity:1;fill-rule:evenodd;stroke:none" d="m 970.84,380.57 v -57.082 h -41.371 v -16.25 H 970.84 V 187.91 c 0,-38.449 13.394,-63.031 54.76,-63.031 12.22,0 24.43,3.973 36.64,9.91 l -6.69,15.859 c -9.85,-4.757 -20.49,-7.929 -29.95,-7.929 -30.334,0 -35.85,18.633 -35.85,45.191 v 119.328 h 66.19 v 16.25 h -66.19 v 59.071 l -18.91,-1.989"></path><path id="path26" style="fill:#ffffff;fill-opacity:1;fill-rule:evenodd;stroke:none" d="m 1250.18,323.488 -48.85,-115.359 -22.46,-57.09 -22.85,56.691 -45.31,115.758 h -20.89 l 78.02,-193.457 -35.86,-84.0427 h 20.49 l 118.59,277.4997 h -20.88"></path><path id="path28" style="fill:#ffffff;fill-opacity:1;fill-rule:evenodd;stroke:none" d="m 1441.68,384.141 h 164.29 v 21.41 H 1420.4 V 127.648 h 21.28 V 252.93 h 158.78 v 20.211 h -158.78 z m 207.63,-60.653 v -195.84 h 19.31 v 114.184 c 0,35.668 27.97,65.008 64.22,65.406 11.43,0 22.85,-2.777 33.09,-9.117 l 8.67,15.859 c -13,7.918 -27.18,11.891 -41.76,11.489 -24.82,0 -52.4,-10.309 -64.61,-36.867 l -0.79,34.886 z m 244.28,-198.609 c 54.76,0 98.89,38.062 98.89,100.293 0,62.25 -44.13,101.887 -98.89,101.887 -54.77,0 -98.89,-39.637 -98.89,-101.887 0,-62.231 44.12,-100.293 98.89,-100.293 z m 0,19.031 c -44.13,0 -79.98,30.52 -79.98,81.262 0,50.75 35.85,83.648 79.98,83.648 44.13,0 79.98,-32.898 79.98,-83.648 0,-50.742 -35.85,-81.262 -79.98,-81.262 z M 2037,323.488 v -195.84 h 19.31 v 109.024 c 0,40.437 27.97,70.957 68.16,71.359 42.16,0.399 69.34,-23.39 69.34,-67.793 v -112.59 h 19.31 v 112.993 c 0,54.308 -35.86,86.418 -87.86,86.418 -27.19,-0.399 -54.37,-11.5 -69.35,-38.457 v 34.886 z m 243.88,57.082 v -57.082 h -41.36 v -16.25 h 41.36 V 187.91 c 0,-38.449 13.4,-63.031 54.77,-63.031 12.22,0 24.43,3.973 36.64,9.91 l -6.7,15.859 c -9.84,-4.757 -20.48,-7.929 -29.94,-7.929 -30.34,0 -35.85,18.633 -35.85,45.191 v 119.328 h 66.19 v 16.25 h -66.19 v 59.071 z m 217.49,-255.691 c 31.12,0 65.01,12.68 83.92,37.66 l -13.79,11.102 c -14.58,-19.422 -44.52,-29.731 -70.13,-29.731 -40.18,0 -75.25,26.559 -79.19,72.539 h 175.33 c 7.48,76.512 -41.37,110.211 -96.14,110.211 -54.77,0 -98.89,-42.422 -98.89,-101.09 0,-62.242 44.12,-100.691 98.89,-100.691 z M 2419.18,233.5 c 4.33,47.969 39.01,75.32 79.19,75.32 46.88,0 78.4,-26.949 78.8,-75.32 z m 225.36,89.988 v -195.84 h 19.31 v 109.024 c 0,40.437 27.97,70.957 68.16,71.359 42.16,0.399 69.34,-23.39 69.34,-67.793 v -112.59 h 19.31 v 112.993 c 0,54.308 -35.86,86.418 -87.86,86.418 -27.19,-0.399 -54.37,-11.5 -69.34,-38.457 v 34.886 z m 314.41,-15.457 c 44.92,0 79.59,-33.301 79.59,-82.062 0,-48.758 -33.89,-82.457 -79.59,-82.457 -43.73,0 -79.59,27.75 -79.59,82.058 0,55.102 35.86,82.461 79.59,82.461 z m 79.98,97.52 V 280.672 c -15.76,31.719 -47.28,45.988 -80.77,45.988 -54.37,0 -97.71,-36.469 -97.71,-101.09 0,-65.011 42.95,-101.09 97.32,-101.09 33.09,0 65.01,16.649 81.16,46.391 v -43.223 h 18.91 v 277.903 h -18.91"></path><path id="path30" style="fill:#ffffff;fill-opacity:1;fill-rule:evenodd;stroke:none" d="m 3438.89,179.59 c -23.64,-23.391 -55.16,-35.281 -86.28,-35.281 -79.59,0 -120.56,56.293 -121.35,121.3 -0.4,66.602 40.97,123.692 121.35,123.692 31.12,0 62.25,-11.5 85.89,-35.289 l 14.58,12.687 c -27.58,27.75 -64.23,41.621 -100.47,41.621 -94.56,0 -142.63,-69.371 -141.84,-143.5 0.39,-74.929 48.85,-140.34 141.84,-140.34 36.24,0 72.89,13.879 100.47,41.629 l -14.19,13.481"></path><path id="path32" style="fill:#ffffff;fill-opacity:1;fill-rule:evenodd;stroke:none" d="m 3585.07,124.879 c 54.77,0 98.9,38.062 98.9,100.293 0,62.25 -44.13,101.887 -98.9,101.887 -54.76,0 -98.89,-39.637 -98.89,-101.887 0,-62.231 44.13,-100.293 98.89,-100.293 z m 0,19.031 c -44.13,0 -79.98,30.52 -79.98,81.262 0,50.75 35.85,83.648 79.98,83.648 44.13,0 79.98,-32.898 79.98,-83.648 0,-50.742 -35.85,-81.262 -79.98,-81.262"></path><path id="path34" style="fill:#ffffff;fill-opacity:1;fill-rule:evenodd;stroke:none" d="m 3816.35,308.031 c 44.92,0 79.59,-33.301 79.59,-82.062 0,-48.758 -33.88,-82.457 -79.59,-82.457 -43.73,0 -79.58,27.75 -79.58,82.058 0,55.102 35.85,82.461 79.58,82.461 z m 79.99,97.52 V 280.672 c -15.76,31.719 -47.28,45.988 -80.77,45.988 -54.37,0 -97.71,-36.469 -97.71,-101.09 0,-65.011 42.94,-101.09 97.32,-101.09 33.09,0 65,16.649 81.16,46.391 v -43.223 h 18.91 v 277.903 h -18.91"></path><path id="path36" style="fill:#ffffff;fill-opacity:1;fill-rule:evenodd;stroke:none" d="M 3990.11,324.281 V 127.648 h -19.3 v 196.633 z m -24.82,63.028 c 0,-20.61 31.13,-20.61 31.13,0 0,20.621 -31.13,20.621 -31.13,0"></path><path id="path38" style="fill:#ffffff;fill-opacity:1;fill-rule:evenodd;stroke:none" d="m 4045.28,323.488 v -195.84 h 19.3 v 109.024 c 0,40.437 27.98,70.957 68.16,71.359 42.16,0.399 69.34,-23.39 69.34,-67.793 v -112.59 h 19.31 v 112.993 c 0,54.308 -35.85,86.418 -87.86,86.418 -27.18,-0.399 -54.37,-11.5 -69.34,-38.457 v 34.886 h -18.91"></path><path id="path40" style="fill:#bc7c1c;fill-opacity:1;fill-rule:evenodd;stroke:none" d="m 2191.85,2714.63 96.75,-0.04 v -299.08 h -96.75 v 299.12"></path><path id="path42" style="fill:#ffffff;fill-opacity:1;fill-rule:evenodd;stroke:none" d="M 14.1914,1428.67 V 2716.72 H 998.922 c 108.978,-1.33 201.868,-40.62 278.678,-117.91 76.81,-77.28 115.21,-170.74 115.21,-280.39 v -889.75 h -295.42 v 891.73 c 0,25.1 -9.19,46.9 -27.57,65.39 -18.38,18.5 -38.73,29.06 -61.05,31.71 -1.31,0 -2.96,0 -4.93,0 -1.97,0 -3.6,0 -4.918,0 H 309.613 V 1428.67 H 14.1914"></path><path id="path44" style="fill:#ffffff;fill-opacity:1;fill-rule:evenodd;stroke:none" d="m 1894.43,1426.7 c -107.67,0 -200.24,38.64 -277.7,116.25 -77.47,77.29 -116.2,170.09 -116.2,278.75 0,0 0,26.09 0,78.27 0,52.19 0,109.66 0,171.74 0,56.81 0,109.99 0,158.86 0,48.89 0,77.95 0,87.2 0,109.98 38.81,203.36 116.2,280.73 77.55,77.53 170.03,116.3 277.7,116.26 l 689.31,-0.29 c 108.99,-0.04 201.79,-38.44 278.68,-115.97 76.73,-77.36 115.22,-170.75 115.22,-280.73 0,-9.25 0,-38.31 0,-87.2 0,-48.87 0,-102.05 0,-158.86 0,-62.08 0,-119.55 0,-171.74 0,-52.18 0,-78.27 0,-78.27 0,-108.66 -38.41,-201.46 -115.22,-278.75 -76.81,-77.61 -169.7,-116.25 -278.68,-116.25 z m 689.31,297.24 c 27.57,0 50.88,9.58 69.92,28.73 19.04,19.16 28.56,41.95 28.56,68.37 v 497.39 c 0,22.46 -8.54,42.61 -25.61,60.44 -17.06,17.83 -35.45,29.39 -55.14,34.68 -2.63,0 -5.58,0.33 -8.87,0.99 -3.28,0.66 -6.23,0.99 -8.86,0.99 h -689.31 c -5.26,-1.32 -11.82,-3.63 -19.7,-6.94 -7.88,-3.3 -15.76,-7.59 -23.63,-12.88 -14.45,-7.6 -27.25,-18.82 -38.41,-33.35 -11.16,-14.54 -16.74,-30.39 -16.74,-47.23 v -490.79 c 0,-26.09 9.19,-48.55 27.57,-67.04 18.38,-18.17 38.73,-29.4 61.05,-33.36 1.32,0 2.96,0 4.93,0 1.97,0 3.61,0 4.93,0 h 689.31"></path><path id="path46" style="fill:#ffffff;fill-opacity:1;fill-rule:evenodd;stroke:none" d="m 4446.76,1426.7 v 1288.04 h -984.73 c -108.98,-1.32 -201.87,-40.62 -278.68,-117.9 -76.81,-77.29 -115.21,-170.75 -115.21,-280.4 V 1426.7 h 295.41 v 891.72 c 0,25.1 9.19,46.9 27.58,65.39 18.38,18.5 38.73,29.07 61.05,31.71 1.32,0 2.96,0 4.93,0 1.97,0 3.6,0 4.92,0 h 689.31 V 1426.7 h 295.42"></path><path id="path48" style="fill:#347ab6;fill-opacity:1;fill-rule:evenodd;stroke:none" d="M 1729.84,1332.19 V 758.781 c 0,-70.511 -22.94,-130.609 -68.8,-180.312 -45.86,-49.688 -101.32,-74.539 -166.4,-74.539 H 906.66 v 826.98 h 176.4 V 695.07 h 411.58 c 16.47,-0.851 30.38,5.102 41.75,17.84 11.37,12.738 17.05,27.61 17.05,44.59 v 574.69 h 176.4"></path><path id="path50" style="fill:#347ab6;fill-opacity:1;fill-rule:evenodd;stroke:none" d="M 2147.29,1141.06 H 1808.26 V 1332.2 H 2667.8 V 1141.06 H 2337.26 V 503.93 h -189.97 v 637.13"></path><path id="path52" style="fill:#347ab6;fill-opacity:1;fill-rule:evenodd;stroke:none" d="m 3497.12,503.93 h -506.57 c -69.23,0 -128.75,24.851 -178.57,74.761 -49.81,49.688 -74.71,109.368 -74.71,179.239 0,0 0,16.781 0,50.332 0,33.558 0,70.508 0,110.437 0,36.52 0,70.723 0,102.151 0,31.43 0,50.12 0,56.07 0,70.72 24.9,130.82 74.71,180.51 49.82,49.91 109.34,74.76 178.57,74.76 l 506.57,1.27 v -192.41 h -506.57 c -2.53,-0.85 -5.06,-1.48 -7.6,-1.91 -2.53,-0.42 -5.06,-1.06 -7.6,-1.91 -11.81,-3.4 -22.79,-10.83 -32.93,-22.3 -10.12,-11.47 -15.19,-24.42 -15.19,-38.87 V 758.781 c 0,-17.84 6.33,-33.133 18.99,-45.871 12.67,-12.738 27.44,-19.121 44.33,-19.121 h 506.57 V 503.93"></path><path id="path54" style="fill:#347ab6;fill-opacity:1;fill-rule:evenodd;stroke:none" d="M 4256.77,822.488 H 3813.52 V 503.93 h -189.97 v 828.26 h 189.97 v -318.56 h 443.25 v 318.56 h 189.96 V 503.93 h -189.96 v 318.558"></path><path id="path56" style="fill:#347ab6;fill-opacity:1;fill-rule:evenodd;stroke:none" d="m 2191.85,1723.94 h 96.76 V 1426.7 h -96.76 v 297.24"></path><path id="path58" style="fill:#ffffff;fill-opacity:1;fill-rule:evenodd;stroke:none" d="m 970.84,380.57 v -57.082 h -41.371 v -16.25 H 970.84 V 187.91 c 0,-38.449 13.394,-63.031 54.76,-63.031 12.22,0 24.43,3.973 36.64,9.91 l -6.69,15.859 c -9.85,-4.757 -20.49,-7.929 -29.95,-7.929 -30.334,0 -35.85,18.633 -35.85,45.191 v 119.328 h 66.19 v 16.25 h -66.19 v 59.071 l -18.91,-1.989"></path><path id="path60" style="fill:#ffffff;fill-opacity:1;fill-rule:evenodd;stroke:none" d="m 1250.18,323.488 -48.85,-115.359 -22.46,-57.09 -22.85,56.691 -45.31,115.758 h -20.89 l 78.02,-193.457 -35.86,-84.0427 h 20.49 l 118.59,277.4997 h -20.88"></path><path id="path62" style="fill:#ffffff;fill-opacity:1;fill-rule:evenodd;stroke:none" d="m 1441.68,384.141 h 164.29 v 21.41 H 1420.4 V 127.648 h 21.28 V 252.93 h 158.78 v 20.211 h -158.78 v 111"></path><path id="path64" style="fill:#ffffff;fill-opacity:1;fill-rule:evenodd;stroke:none" d="m 1649.32,323.488 v -195.84 h 19.3 v 114.184 c 0,35.668 27.97,65.008 64.22,65.406 11.43,0 22.85,-2.777 33.1,-9.117 l 8.67,15.859 c -13.01,7.918 -27.19,11.891 -41.77,11.489 -24.82,0 -52.4,-10.309 -64.61,-36.867 l -0.79,34.886 h -18.12"></path><path id="path66" style="fill:#ffffff;fill-opacity:1;fill-rule:evenodd;stroke:none" d="m 1893.6,124.879 c 54.76,0 98.89,38.062 98.89,100.293 0,62.25 -44.13,101.887 -98.89,101.887 -54.77,0 -98.9,-39.637 -98.9,-101.887 0,-62.231 44.13,-100.293 98.9,-100.293 z m 0,19.031 c -44.13,0 -79.98,30.52 -79.98,81.262 0,50.75 35.85,83.648 79.98,83.648 44.12,0 79.98,-32.898 79.98,-83.648 0,-50.742 -35.86,-81.262 -79.98,-81.262"></path><path id="path68" style="fill:#ffffff;fill-opacity:1;fill-rule:evenodd;stroke:none" d="m 2037.02,323.488 v -195.84 h 19.3 v 109.024 c 0,40.437 27.98,70.957 68.16,71.359 42.16,0.399 69.35,-23.39 69.35,-67.793 v -112.59 h 19.3 v 112.993 c 0,54.308 -35.85,86.418 -87.86,86.418 -27.18,-0.399 -54.37,-11.5 -69.34,-38.457 v 34.886 h -18.91"></path><path id="path70" style="fill:#ffffff;fill-opacity:1;fill-rule:evenodd;stroke:none" d="m 2280.9,380.57 v -57.082 h -41.37 v -16.25 h 41.37 V 187.91 c 0,-38.449 13.4,-63.031 54.77,-63.031 12.21,0 24.43,3.973 36.64,9.91 l -6.7,15.859 c -9.85,-4.757 -20.48,-7.929 -29.94,-7.929 -30.34,0 -35.85,18.633 -35.85,45.191 v 119.328 h 66.19 v 16.25 h -66.19 v 59.071 l -18.92,-1.989"></path><path id="path72" style="fill:#ffffff;fill-opacity:1;fill-rule:evenodd;stroke:none" d="m 2498.39,124.879 c 31.13,0 65.01,12.68 83.92,37.66 l -13.79,11.102 c -14.57,-19.422 -44.52,-29.731 -70.13,-29.731 -40.19,0 -75.25,26.559 -79.19,72.539 h 175.33 c 7.48,76.512 -41.37,110.211 -96.14,110.211 -54.76,0 -98.89,-42.422 -98.89,-101.09 0,-62.242 44.13,-100.691 98.89,-100.691 z M 2419.2,233.5 c 4.34,47.969 39,75.32 79.19,75.32 46.89,0 78.41,-26.949 78.8,-75.32 H 2419.2"></path><path id="path74" style="fill:#ffffff;fill-opacity:1;fill-rule:evenodd;stroke:none" d="m 2644.57,323.488 v -195.84 h 19.3 v 109.024 c 0,40.437 27.98,70.957 68.16,71.359 42.16,0.399 69.35,-23.39 69.35,-67.793 v -112.59 h 19.31 v 112.993 c 0,54.308 -35.86,86.418 -87.87,86.418 -27.18,-0.399 -54.37,-11.5 -69.34,-38.457 v 34.886 h -18.91"></path><path id="path76" style="fill:#ffffff;fill-opacity:1;fill-rule:evenodd;stroke:none" d="m 2958.98,308.031 c 44.92,0 79.59,-33.301 79.59,-82.062 0,-48.758 -33.88,-82.457 -79.59,-82.457 -43.73,0 -79.58,27.75 -79.58,82.058 0,55.102 35.85,82.461 79.58,82.461 z m 79.99,97.52 V 280.672 c -15.76,31.719 -47.28,45.988 -80.77,45.988 -54.37,0 -97.71,-36.469 -97.71,-101.09 0,-65.011 42.94,-101.09 97.31,-101.09 33.1,0 65.01,16.649 81.17,46.391 v -43.223 h 18.91 v 277.903 h -18.91"></path><path id="path78" style="fill:#ffffff;fill-opacity:1;fill-rule:evenodd;stroke:none" d="m 3438.89,179.59 c -23.64,-23.391 -55.16,-35.281 -86.28,-35.281 -79.59,0 -120.56,56.293 -121.35,121.3 -0.4,66.602 40.97,123.692 121.35,123.692 31.12,0 62.25,-11.5 85.89,-35.289 l 14.58,12.687 c -27.58,27.75 -64.23,41.621 -100.47,41.621 -94.56,0 -142.63,-69.371 -141.84,-143.5 0.39,-74.929 48.85,-140.34 141.84,-140.34 36.24,0 72.89,13.879 100.47,41.629 l -14.19,13.481"></path><path id="path80" style="fill:#ffffff;fill-opacity:1;fill-rule:evenodd;stroke:none" d="m 3585.07,124.879 c 54.77,0 98.9,38.062 98.9,100.293 0,62.25 -44.13,101.887 -98.9,101.887 -54.76,0 -98.89,-39.637 -98.89,-101.887 0,-62.231 44.13,-100.293 98.89,-100.293 z m 0,19.031 c -44.13,0 -79.98,30.52 -79.98,81.262 0,50.75 35.85,83.648 79.98,83.648 44.13,0 79.98,-32.898 79.98,-83.648 0,-50.742 -35.85,-81.262 -79.98,-81.262"></path><path id="path82" style="fill:#ffffff;fill-opacity:1;fill-rule:evenodd;stroke:none" d="m 3816.35,308.031 c 44.92,0 79.59,-33.301 79.59,-82.062 0,-48.758 -33.88,-82.457 -79.59,-82.457 -43.73,0 -79.58,27.75 -79.58,82.058 0,55.102 35.85,82.461 79.58,82.461 z m 79.99,97.52 V 280.672 c -15.76,31.719 -47.28,45.988 -80.77,45.988 -54.37,0 -97.71,-36.469 -97.71,-101.09 0,-65.011 42.94,-101.09 97.32,-101.09 33.09,0 65,16.649 81.16,46.391 v -43.223 h 18.91 v 277.903 h -18.91"></path><path id="path84" style="fill:#ffffff;fill-opacity:1;fill-rule:evenodd;stroke:none" d="M 3990.11,324.281 V 127.648 h -19.3 v 196.633 z m -24.82,63.028 c 0,-20.61 31.13,-20.61 31.13,0 0,20.621 -31.13,20.621 -31.13,0"></path><path id="path86" style="fill:#ffffff;fill-opacity:1;fill-rule:evenodd;stroke:none" d="m 4045.28,323.488 v -195.84 h 19.3 v 109.024 c 0,40.437 27.98,70.957 68.16,71.359 42.16,0.399 69.34,-23.39 69.34,-67.793 v -112.59 h 19.31 v 112.993 c 0,54.308 -35.85,86.418 -87.86,86.418 -27.18,-0.399 -54.37,-11.5 -69.34,-38.457 v 34.886 h -18.91"></path><path id="path88" style="fill:#347ab6;fill-opacity:1;fill-rule:evenodd;stroke:none" d="m 2191.85,2714.63 96.75,-0.04 v -299.08 h -96.75 v 299.12"></path><path id="path90" style="fill:#ffffff;fill-opacity:1;fill-rule:evenodd;stroke:none" d="m 4402.04,309.219 c -14.97,10.703 -35.46,17.84 -55.16,17.84 -50.43,0 -91.41,-34.489 -91.41,-95.539 0,-52.329 35.07,-94.75 91.41,-94.75 36.25,0 73.67,-16.649 73.67,-58.6684 0,-41.6211 -34.66,-59.0703 -73.67,-59.0703 -39.01,0 -72.89,19.0273 -72.89,59.0703 h -19.31 C 4254.68,28.5508 4295.26,0 4346.88,0 c 51.61,0 92.59,25.3789 92.59,78.1016 0,33.6994 -18.92,57.8784 -53.19,70.1684 32.31,14.671 52.4,49.16 52.4,83.25 0,31.71 -10.25,51.531 -24.03,66.601 l 18.91,22.199 -12.61,11.102 z m -55.16,-1.59 c 40.19,0 72.89,-26.559 72.89,-76.109 0,-40.438 -32.7,-75.321 -72.89,-75.321 -44.52,0 -72.1,34.883 -72.1,75.321 0,51.14 32.31,76.109 72.1,76.109"></path><path id="path92" style="fill:#347ab6;fill-opacity:1;fill-rule:evenodd;stroke:none" d="m 14.1914,503.93 v 828.26 H 579.641 c 62.578,-0.85 115.918,-26.12 160.023,-75.82 44.106,-49.7 66.156,-109.8 66.156,-180.31 0,-5.94 0,-24.63 0,-56.06 0,-31.43 0,-65.41 0,-101.941 0,-39.93 0,-76.668 0,-110.219 0,-33.559 0,-50.34 0,-50.34 0,-69.648 -22.05,-129.328 -66.156,-179.031 C 695.559,528.781 642.219,503.93 579.641,503.93 Z M 183.828,695.07 h 395.813 c 15.832,-0.851 29.214,5.102 40.144,17.84 10.934,12.738 16.403,27.61 16.403,44.59 v 319.84 c 0,14.44 -4.903,27.4 -14.708,38.86 -9.796,11.47 -20.351,18.9 -31.66,22.3 -1.507,0 -3.207,0.22 -5.09,0.64 -1.882,0.43 -3.582,0.64 -5.089,0.64 H 183.828 V 695.07"></path><path id="path94" style="fill:#ffffff;fill-opacity:1;fill-rule:evenodd;stroke:none" d="m 507.086,127.648 v 196.243 h -19.309 v -109.02 c 0,-40.441 -27.972,-70.961 -68.16,-71.359 -42.156,-0.403 -69.34,23.386 -69.34,67.789 v 112.59 H 330.973 V 210.91 c 0,-54.32 35.851,-86.43 87.855,-86.43 27.188,0.399 54.375,11.5 69.348,38.461 v -35.293 h 18.91"></path><path id="path96" style="fill:#ffffff;fill-opacity:1;fill-rule:evenodd;stroke:none" d="m 725.758,323.488 v -42.816 c -16.153,30.527 -48.067,45.199 -79.586,45.199 -54.371,0 -98.891,-40.441 -98.891,-100.301 0,-59.859 44.52,-101.09 98.891,-101.09 31.519,0 60.676,14.282 79.586,44.801 v -41.633 h 19.305 c 0,65.411 0,130.434 0,195.84 z m -79.586,-16.25 c 108.348,0 108.348,-163.726 0,-163.726 -44.125,0 -79.586,32.91 -79.586,82.058 0,49.16 35.461,81.668 79.586,81.668"></path><path id="path98" style="fill:#ffffff;fill-opacity:1;fill-rule:evenodd;stroke:none" d="M 797.473,405.551 V 127.648 h 19.304 v 277.903 h -19.304"></path><path id="path100" style="fill:#ffffff;fill-opacity:1;fill-rule:evenodd;stroke:none" d="M 890.066,324.281 V 127.648 h -19.304 v 196.633 z m -24.82,63.028 c 0,-20.61 31.121,-20.61 31.121,0 0,20.621 -31.121,20.621 -31.121,0"></path><path id="path102" style="fill:#347ab6;fill-opacity:1;fill-rule:evenodd;stroke:none" d="m 14.1914,503.93 v 828.26 H 579.641 c 62.578,-0.85 115.918,-26.12 160.023,-75.82 44.106,-49.7 66.156,-109.8 66.156,-180.31 0,-5.94 0,-24.63 0,-56.06 0,-31.43 0,-65.41 0,-101.941 0,-39.93 0,-76.668 0,-110.219 0,-33.559 0,-50.34 0,-50.34 0,-69.648 -22.05,-129.328 -66.156,-179.031 C 695.559,528.781 642.219,503.93 579.641,503.93 Z M 183.828,695.07 h 395.813 c 15.832,-0.851 29.214,5.102 40.144,17.84 10.934,12.738 16.403,27.61 16.403,44.59 v 319.84 c 0,14.44 -4.903,27.4 -14.708,38.86 -9.796,11.47 -20.351,18.9 -31.66,22.3 -1.507,0 -3.207,0.22 -5.09,0.64 -1.882,0.43 -3.582,0.64 -5.089,0.64 H 183.828 V 695.07"></path><path id="path104" style="fill:#ffffff;fill-opacity:1;fill-rule:evenodd;stroke:none" d="m 507.086,127.648 v 196.243 h -19.309 v -109.02 c 0,-40.441 -27.972,-70.961 -68.16,-71.359 -42.156,-0.403 -69.34,23.386 -69.34,67.789 v 112.59 H 330.973 V 210.91 c 0,-54.32 35.851,-86.43 87.855,-86.43 27.188,0.399 54.375,11.5 69.348,38.461 v -35.293 h 18.91"></path><path id="path106" style="fill:#ffffff;fill-opacity:1;fill-rule:evenodd;stroke:none" d="m 725.758,323.488 v -42.816 c -16.153,30.527 -48.067,45.199 -79.586,45.199 -54.371,0 -98.891,-40.441 -98.891,-100.301 0,-59.859 44.52,-101.09 98.891,-101.09 31.519,0 60.676,14.282 79.586,44.801 v -41.633 h 19.305 c 0,65.411 0,130.434 0,195.84 z m -79.586,-16.25 c 108.348,0 108.348,-163.726 0,-163.726 -44.125,0 -79.586,32.91 -79.586,82.058 0,49.16 35.461,81.668 79.586,81.668"></path><path id="path108" style="fill:#ffffff;fill-opacity:1;fill-rule:evenodd;stroke:none" d="M 797.473,405.551 V 127.648 h 19.304 v 277.903 h -19.304"></path><path id="path110" style="fill:#ffffff;fill-opacity:1;fill-rule:evenodd;stroke:none" d="M 890.066,324.281 V 127.648 h -19.304 v 196.633 z m -24.82,63.028 c 0,-20.61 31.121,-20.61 31.121,0 0,20.621 -31.121,20.621 -31.121,0"></path><path id="path112" style="fill:#347ab6;fill-opacity:1;fill-rule:evenodd;stroke:none" d="m 165.586,103.191 v 173.93 c 0,10.969 -29.887,10.758 -29.887,0 v -173.93 c 0,-11.7222 29.887,-11.5113 29.887,0"></path><path id="path114" style="fill:#ffffff;fill-opacity:1;fill-rule:evenodd;stroke:none" d="m 150.113,418.641 c 82.91,0 150.125,-67.313 150.125,-150.34 0,-66.789 -43.488,-123.391 -103.648,-142.981 v 21.282 c 48.894,18.726 83.617,66.136 83.617,121.699 0,71.949 -58.242,130.281 -130.09,130.281 -71.8475,0 -130.0897,-58.332 -130.0897,-130.281 0,-56.031 35.3125,-103.801 84.8677,-122.199 V 124.898 C 44.0898,144.121 0,201.051 0,268.301 c 0,83.027 67.2109,150.34 150.113,150.34"></path></g></g></svg>